<svg xmlns="http://www.w3.org/2000/svg" data-name="Layer 1" viewBox="0 0 128 128"><path d="M22.17 36.52a2 2 0 0 0-2.74.68l-.53.9a2 2 0 1 0 3.46 2l.49-.84A2 2 0 0 0 22.17 36.52zM19.27 86.45a2 2 0 0 0-.78 2.72l.52.91a2 2 0 0 0 3.46-2L22 87.23A2 2 0 0 0 19.27 86.45zM16 64.1V64q0-.44 0-.87a2 2 0 0 0-2-2h0a2 2 0 0 0-2 2q0 .47 0 .94v.1a2 2 0 0 0 4 0zM13.78 77.55a2 2 0 1 0 3.86-1q-.13-.47-.24-.94a2 2 0 0 0-3.88 1Q13.65 77.05 13.78 77.55zM16.48 48.27A2 2 0 0 0 14 49.64q-.15.5-.28 1a2 2 0 1 0 3.87 1q.12-.47.26-.93A2 2 0 0 0 16.48 48.27zM76.28 17.58l.93.25A2 2 0 0 0 78.31 14l-1-.28a2 2 0 1 0-1 3.87zM63.84 16h1a2 2 0 0 0 0-4h-1a2 2 0 0 0 0 4zM50.91 17.73a2 2 0 0 0 .52-.07l.93-.24a2 2 0 1 0-1-3.88l-1 .26a2 2 0 0 0 .52 3.93zM38.88 22.76a2 2 0 0 0 1-.27l.84-.48a2 2 0 1 0-1.94-3.5l-.91.52a2 2 0 0 0 1 3.73zM105.76 91.57a2 2 0 0 0 2.75-.67L109 90a2 2 0 0 0-3.46-2l-.49.83A2 2 0 0 0 105.76 91.57zM107.71 41.71a2 2 0 0 0 1.75-3l-.52-.91a2 2 0 0 0-3.45 2l.47.83A2 2 0 0 0 107.71 41.71zM63.08 112h0a2 2 0 0 0 0 4h1a2 2 0 0 0 2-2 2 2 0 0 0-2-2zM87.86 22.34l.83.49a2 2 0 1 0 2.06-3.43l-.91-.53a2 2 0 1 0-2 3.47zM88 105.56l-.84.47a2 2 0 1 0 1.93 3.5L90 109a2 2 0 0 0-2-3.46zM114.19 50.34a2 2 0 1 0-3.86 1q.13.46.24.93a2 2 0 0 0 3.88-1Q114.32 50.85 114.19 50.34zM111.49 79.83A2 2 0 0 0 114 78.46q.14-.5.28-1a2 2 0 1 0-3.86-1c-.08.31-.17.62-.26.93A2 2 0 0 0 111.49 79.83zM76.47 110.37l-.93.24a2 2 0 1 0 1 3.88l1-.26a2 2 0 1 0-1-3.86zM39.22 105.12a2 2 0 1 0-2.07 3.42l.9.53a2 2 0 1 0 2-3.46zM112 63.79V64q0 .48 0 1a2 2 0 0 0 2 2h0a2 2 0 0 0 2-2q0-.52 0-1v-.21a2 2 0 0 0-4 0zM50.7 110.13A2 2 0 0 0 49.59 114l1 .28a2 2 0 0 0 1-3.87zM9 25.47a2 2 0 0 0 1.93.45l9.37-2.78L31.37 34.2 34 31.52l.16-.15L23.46 20.63 25.95 10.2a2 2 0 0 0-.59-1.93L17 .53A2 2 0 0 0 15.06.08l-11 3.26A2 2 0 0 0 2.68 4.8L.05 15.8a2 2 0 0 0 .59 1.93zM6.3 6.85l8.8-2.61 6.68 6.17L19.7 19.15l-8.8 2.61L4.22 15.59zM102.64 119.73l8.37 7.74a2 2 0 0 0 1.93.45l11-3.26a2 2 0 0 0 1.38-1.45l2.63-11a2 2 0 0 0-.59-1.93L119 102.53a2 2 0 0 0-1.93-.45l-9.37 2.78L97.13 94.3l-.15.16L94.3 97.13l10.24 10.24-2.49 10.43A2 2 0 0 0 102.64 119.73zm5.66-10.88l8.8-2.61 6.68 6.17-2.09 8.74-8.8 2.61-6.68-6.17zM94 31.53l2.67 2.67 11.06-11.06 9.37 2.78a2 2 0 0 0 1.93-.45l8.37-7.74a2 2 0 0 0 .59-1.93l-2.63-11a2 2 0 0 0-1.38-1.45l-11-3.26A2 2 0 0 0 111 .53l-8.37 7.74a2 2 0 0 0-.59 1.93l2.49 10.43L93.79 31.38zM112.89 4.24l8.8 2.61 2.09 8.74-6.68 6.17-8.8-2.61-2.09-8.74zM33.51 45.92l2.75 2.75a31.17 31.17 0 0 0-3.07 7.41H29.3a6.06 6.06 0 0 0-5.8 6.29v4.27a6.06 6.06 0 0 0 5.8 6.28h3.89a31.17 31.17 0 0 0 3.07 7.41L33.5 83.09a6.08 6.08 0 0 0 .35 8.54l3 3a6.63 6.63 0 0 0 4.58 1.94 5.6 5.6 0 0 0 4-1.61l2.75-2.75a31.35 31.35 0 0 0 7.41 3.07v3.88A6.06 6.06 0 0 0 61.86 105h4.28a6.06 6.06 0 0 0 6.28-5.81V95.31a31.35 31.35 0 0 0 7.41-3.07L82.58 95a5.57 5.57 0 0 0 4 1.62 6.51 6.51 0 0 0 4.57-2l3-3A6.56 6.56 0 0 0 96.1 87a5.56 5.56 0 0 0-1.61-4l-2.75-2.75a32.05 32.05 0 0 0 3.08-7.42H98.7a6.06 6.06 0 0 0 5.8-6.28V62.37a6.06 6.06 0 0 0-5.8-6.29H94.82a31.8 31.8 0 0 0-3.08-7.41l2.75-2.75a6.07 6.07 0 0 0-.34-8.55l-3-3a6.56 6.56 0 0 0-4.59-2 5.55 5.55 0 0 0-4 1.61l-2.75 2.75a31.52 31.52 0 0 0-7.41-3.07V29.8A6.06 6.06 0 0 0 66.14 24H61.86a6.06 6.06 0 0 0-6.28 5.8v3.89a31.7 31.7 0 0 0-7.41 3.07L45.41 34a5.52 5.52 0 0 0-4-1.61 6.55 6.55 0 0 0-4.58 2l-3 3A6.09 6.09 0 0 0 33.51 45.92zM64 44.5A19.5 19.5 0 0 1 81.23 73.13a2 2 0 1 1-3.53-1.88A15.5 15.5 0 1 0 64 79.5a14.87 14.87 0 0 0 2.41-.19 2 2 0 0 1 .62 4 20.5 20.5 0 0 1-3 .23 19.5 19.5 0 0 1 0-39z"/><circle cx="115" cy="115" r="2"/><circle cx="13" cy="115" r="2"/><circle cx="115" cy="13" r="2"/><circle cx="13" cy="13" r="2"/><path d="M2.68,123.2a2,2,0,0,0,1.38,1.45l11,3.26a2,2,0,0,0,1.93-.45l8.37-7.74a2,2,0,0,0,.59-1.93l-2.49-10.43L33.69,97.13,31,94.46l-.15-.16L20.31,104.86l-9.37-2.78a2,2,0,0,0-1.93.45L.64,110.27a2,2,0,0,0-.59,1.93Zm8.21-17,8.8,2.61,2.09,8.74-6.68,6.17-8.8-2.61-2.09-8.74Z"/></svg>