<svg xmlns="http://www.w3.org/2000/svg" enable-background="new 0 0 60 60" viewBox="0 0 60 60"><path d="M38.3096924 37.6147461c5.6054688-3.0551758 9.0639648-8.8447266 9.0639648-15.2412109 0-4.7978516-1.9130859-9.2641602-5.3867188-12.5761719-3.4716797-3.309082-8.0229492-5.003418-12.8369141-4.7773438-8.5551758.4082031-15.6235352 7.1318359-16.4414063 15.6401367-.6743164 7.0209961 2.8364258 13.6074219 8.9814453 16.9545898v3.7636719c0 .5522461.4477539 1 1 1h14.6196289c.5522461 0 1-.4477539 1-1V37.6147461zM36.9205322 36.0859375c-.3769531.1855469-.6108398.5620117-.6108398.9824219v3.3100586H23.6900635v-3.3691406c0-.378418-.2138672-.7246094-.5522461-.894043-5.7407227-2.8735352-9.0532227-8.8647461-8.4379883-15.2636719.7231445-7.5253906 6.9765625-13.4726563 14.5458984-13.8334961 4.2421875-.2050781 8.2890625 1.2983398 11.3613281 4.2270508 3.0737305 2.9306641 4.7666016 6.8828125 4.7666016 11.128418C45.3736572 28.1982422 42.1309814 33.4541016 36.9205322 36.0859375zM38.053833 45.3745117c0-.5522461-.4477539-1-1-1H22.9459229c-.5522461 0-1 .4477539-1 1s.4477539 1 1 1H37.053833C37.6060791 46.3745117 38.053833 45.9267578 38.053833 45.3745117zM36.5919189 49.6870117c0-.5522461-.4477539-1-1-1h-11.184082c-.5522461 0-1 .4477539-1 1s.4477539 1 1 1h11.184082C36.144165 50.6870117 36.5919189 50.2392578 36.5919189 49.6870117zM27.0762939 53c-.5522461 0-1 .4477539-1 1s.4477539 1 1 1h5.8476563c.5522461 0 1-.4477539 1-1s-.4477539-1-1-1H27.0762939z"/><path d="M35.0030518,20.5004883h-7.4033203l6.5527344-6.5532227c0.390625-0.390625,0.390625-1.0234375,0-1.4140625
	s-1.0234375-0.390625-1.4140625,0l-8.2597656,8.2602539c-0.2861328,0.2861328-0.371582,0.7158203-0.2167969,1.0898438
	c0.1547852,0.3735352,0.5195313,0.6171875,0.9238281,0.6171875h7.4033203l-8.2993164,8.2988281
	c-0.390625,0.390625-0.390625,1.0234375,0,1.4140625c0.1953125,0.1953125,0.4511719,0.2929688,0.7070313,0.2929688
	s0.5117188-0.0976563,0.7070313-0.2929688L35.710083,22.2075195c0.2861328-0.2861328,0.371582-0.7158203,0.2167969-1.0898438
	C35.7720947,20.7441406,35.4073486,20.5004883,35.0030518,20.5004883z"/></svg>