<svg xmlns="http://www.w3.org/2000/svg" viewBox="0 0 32 32"><g data-name="Layer 2"><path d="M24.28,17H7.72a2.39,2.39,0,0,1-2.34-2.89L7.58,3.85A3.63,3.63,0,0,1,11.11,1h9.78a3.63,3.63,0,0,1,3.53,2.86l2.2,10.25A2.39,2.39,0,0,1,24.28,17ZM11.11,3A1.62,1.62,0,0,0,9.54,4.27L7.34,14.53a.39.39,0,0,0,.38.47H24.28a.39.39,0,0,0,.38-.47L22.46,4.27A1.62,1.62,0,0,0,20.89,3Z"/><rect width="2" height="14.25" x="15" y="15.75"/><rect width="10" height="2" x="11" y="29" rx="1" ry="1"/><rect width="2" height="3" x="10" y="16" rx="1" ry="1"/></g></svg>