<?xml version="1.0" encoding="UTF-8"?><svg xmlns="http://www.w3.org/2000/svg" xmlns:xlink="http://www.w3.org/1999/xlink" version="1.1" id="Layer_1" x="0px" y="0px" viewBox="0 0 24 24" xml:space="preserve"><path d="M12 9.75a.5.5 0 0 1-.5-.5v-3a.5.5 0 0 1 1 0v3a.5.5 0 0 1-.5.5z"/><path d="M20.5 15.75a.499.499 0 0 1-.12-.984l2-.5a.506.506 0 0 1 .606.363.499.499 0 0 1-.364.605l-2 .5a.47.47 0 0 1-.122.016z"/><path d="M17.5 11.75a.5.5 0 0 1-.354-.853l2-2a.506.506 0 0 1 .707 0 .502.502 0 0 1 0 .707l-2 2a.498.498 0 0 1-.353.146z"/><g><path d="M18.5 18.25h-13a.5.5 0 0 1-.5-.5c0-3.859 3.14-7 7-7 3.859 0 7 3.141 7 7 0 .275-.225.5-.5.5zm-12.479-1H17.98c-.256-3.075-2.84-5.5-5.979-5.5a6.008 6.008 0 0 0-5.98 5.5z"/><path d="M12 9.75a.5.5 0 0 1-.5-.5v-3a.5.5 0 0 1 1 0v3a.5.5 0 0 1-.5.5z"/><path d="M3.5 15.75a.47.47 0 0 1-.122-.016l-2-.5a.499.499 0 1 1 .242-.968l2 .5a.499.499 0 0 1-.12.984z"/><path d="M6.5 11.75a.502.502 0 0 1-.354-.146l-2-2a.5.5 0 0 1 0-.707.506.506 0 0 1 .707 0l2 2a.5.5 0 0 1-.353.853z"/></g><path d="M21.5 18.25h-19a.5.5 0 0 1 0-1h19c.275 0 .5.225.5.5s-.225.5-.5.5z"/><metadata><rdf:RDF xmlns:rdf="http://www.w3.org/1999/02/22-rdf-syntax-ns#" xmlns:rdfs="http://www.w3.org/2000/01/rdf-schema#" xmlns:dc="http://purl.org/dc/elements/1.1/"><rdf:Description about="https://iconscout.com/legal#licenses" dc:title="sunrise" dc:description="sunrise" dc:publisher="Iconscout" dc:date="2017-12-15" dc:format="image/svg+xml" dc:language="en"><dc:creator><rdf:Bag><rdf:li>Icons Mind</rdf:li></rdf:Bag></dc:creator></rdf:Description></rdf:RDF></metadata></svg>